<?xml version="1.0" encoding="UTF-8"?>
<svg id="Layer_1" data-name="Layer 1" xmlns="http://www.w3.org/2000/svg" viewBox="0 0 4576.12 2606.96">
  <path d="M4246.41,1170.8v63.44c-19.41,50.09-35.69,107.34-77.59,144.63-36.61,32.59-88.12,36.64-126.86,63.75-68.65,48.05-132.79,149.28-202,207.29-44.32,37.14-103.86,75.62-158.78,91.75,64.13-54.93,130.96-105.47,187.33-168.99,70.44-79.37,114.18-172.23,210.69-226.82,40.97-23.18,138.37-36.16,89.48-94.44-71,9.95-100.13-6.02-71.84-78.3,42.73-109.18,108.91-123.39,149.57-2.3Z"/>
  <path d="M3059.43,402.52h7.07c84.94,57.68,86.85,114.19,3.45,174.87l-72.1-65.52,61.58-109.35Z"/>
  <path d="M1771.04,1210.6c-16.41,15.04-72.18,57.32-78.72,23.66-22.38,23.18-51.29,29.31-77.58,49.49-109.01,83.69-216.21,240.63-310.95,345.3-237.82,262.73-608.72,559.82-992.81,454.56-39.67-10.87-168.62-79.53-72.65-100.73,54.92-12.13,165.13-1.76,231.59-8.61,502.65-51.79,699.83-317.16,1017.37-648.5,79.92-83.39,192.24-212.51,313.54-212.31,9-75.53,20.24-141.36,68.09-203.31,28-.69-5.21,141.3-10.48,158.56-13.76,45.03-52.72,110.13-87.39,141.89Z"/>
  <path d="M2967.67,1410.5c12.05-1.93,7.62,16.93,6.41,24-5.41,31.72-23.36,67.28-26.96,100.04-22.53,205.01,200.33,211.64,324.34,112.11,128.53-103.15,110.82-187.7,127.91-330.55,9.44-78.9,34.05-44.27,80.1-46.36,174-7.88,238.68-146.4,378.27-218.77,7.45,9.98-23,74.47-32.06,84.24-11.97,12.9-50.58,27.57-70.14,42.8-47.94,37.31-84.8,95.96-138.57,129.61-56.56,35.39-113.7,40.22-176.18,56.85-15.78,56.64-21.22,113.92-42.06,169.49-41.36,110.27-166.98,285.5-293.34,299.44-270.02,29.8-213.61-265.2-137.73-422.9Z"/>
  <path d="M3137.12,642.2c-10.56,122.44-136.09,139.3-228.59,184.22-223.55,108.56-738.23,365.9-778.53,632.99-13.92,92.25,41.18,69.89,60.43,104.72,30.67,55.48-81.69,157.77-98.13,25.24-22.81-183.89,124.79-395.45,256.89-510.38,217.19-188.98,521.49-331.7,787.94-436.78Z"/>
  <path d="M2769.72,1135.6c-19.86,83.75-54.23,190.21-3.5,267.66,19.26-21.28,30.27-49.1,49.38-70.42,13.89-15.49,63.64-46.98,66.07-53.97,12.58-36.06-13.41-58.92-48.3-51.71-2.39-12.03,6.25-17.66,13.92-24.81,69.93-65.27,220.07-33.43,134.42,74.12,29.07,3.42,73.27-29.63,81.63-55.94,7.67-24.15.72-53.41,4.85-79.74,6.41-40.85,38.87-83.74,47.85-124.99l7.27,67.2c-5.02,82.71-30.55,179.21-99.06,232.46-68.42,53.18-88.68,1.24-143.29,11.87-10.7,2.08-53.7,24.68-58.42,33.63-21.37,40.57,47,20.74,57.29,35.07,5.46,126.17-165.07,248.68-187.05,59.49-9.05-77.9,9.18-215.31,43.19-286.67,6.77-14.21,13.54-34.81,33.74-33.23Z"/>
  <path d="M2303.4,973.48c2.52,12.38-6.39,17.38-14,24.73-28.81,27.83-70.88,48.69-102.62,80.88-22.53,22.85-139.38,162.85-147.94,183.69-11.46,27.9-12.25,71.99-26.77,107.21-25.75,62.47-99.96,145.77-174.2,131.38-1.16-9.66-3.73-24.88.86-33.04,2.79-4.96,78.82-52.4,93.57-65.14,20.68-17.86,51.39-41.19,46.09-70.24-14.62,8.35-67.56,3.61-71.09-11.8-5.91-25.78,37.96-126.19,56.68-145.14,36.92-37.38,52.79,21.88,73.2,14.91,11.08-3.79,70.35-67.99,75.46-80.07-85.32-32.07-93.65-33.91-48.05-111.37,24.57-41.74,85-125.61,140.23-107.56,24.46,8,30.04,46.06,14.17,57.43-17.05,12.21-60.75-32.6-95.51,17.58-33.11,47.78,50.17,54.02,83,47.19,17.94-3.73,86.42-50.22,96.92-40.64Z"/>
  <path d="M1647.4,734.72c46.13-.62,74.44,49.11,66.05,90.67l70.56-105.26c69.28,37.44,78.98,92.08,20.71,146.93-39.29,36.99-58.66-27.93-97.61-34.07-50,74.42-65.61,62.37-122.64,3.08l62.92-101.34Z"/>
  <path d="M3566.05,928.92c-32.72,27.06-61.9-23.7-90.21-36.93l64.66-108.44c40.11,8.86,77.26,48.84,63.04,91.22l64.59-97.72c21.11-12.2,67.28,36.77,69.58,59.62,2.16,21.55-30.51,82.14-49.55,91.05-32.45,15.18-57.79-37.69-87.95-45.9-7.91,1.93-25.29,39.79-34.15,47.11Z"/>
  <path d="M2078.4,662.17c-10.81-18.73,55.32-92.02,62.34-115.6l16.21-2.01c74.93,35.69,65.4,111.85,1.97,154.4-28.51,19.12-52.22-29.84-80.52-36.79Z"/>
  <path d="M4084.88,824.48c-8.82-15.28,57.62-97.3,69.65-115.94,44.95,5.72,74.34,52.56,60.45,96.17-3.61,11.33-36.71,52.77-48.2,57.81-33.41,14.63-51.41-29.81-81.9-38.04Z"/>
  <path d="M3088.51,805.09c70.41,15.54,89.91,72.72,41.4,129.42-47.98,56.09-60.12,12.94-104.92-21.91l63.52-107.51Z"/>
  <path d="M1653.46,684.32l64.37-111.83c35.49-1.6,74.29,44.43,68.67,78.44-2.19,13.28-36.58,66.87-48.39,72.38-33.43,15.57-50.93-35.74-84.65-38.98Z"/>
  <path d="M3611.14,621.43c70.96,24.78,86.84,73.74,37.67,132.93-44.55,53.62-57.78,2.01-101.75-24.59l64.09-108.35Z"/>
</svg>